<svg xmlns="http://www.w3.org/2000/svg" width="48" height="48"><path d="M19.531 17.313L41 24 19.531 9.758z" fill="#004d40"/><path d="M30.316 4H11.617L7 12h14z" fill="#26a69a"/><path d="M41 24L30.316 4 21 12z" fill="#00897b"/><path d="M19.824 38.066L41 24l-21.176 5.629z" fill="#004d40"/><path d="M21 31.098L41 24l-20.004-7.074L17.262 24z" fill="#00897b"/><path d="M21 16.926l-3.906-1.367L8.054 24l9.04 8.46L21 31.099zm0 19.094H7L11.617 44h18.7l-9.301-7.988z" fill="#26a69a"/><path d="M7 12l11.184 3.941L21 12z" fill="#00796b"/><path d="M21.016 36.012l9.3 7.988L41 24z" fill="#00897b"/><path d="M21 36l-2.73-3.95L7 36.02h14z" fill="#00796b"/><path d="M21 31.098l-3.906 1.363L21 36zM21 12l-3.906 3.559L21 16.926z" fill="#00695c"/></svg>