<svg width="163" height="210" xmlns="http://www.w3.org/2000/svg"><defs><linearGradient x1="30.596%" y1="9.259%" x2="100%" y2="100%" id="a"><stop stop-color="#EDB3FF" offset="0%"/><stop stop-color="#81B7FF" offset="100%"/></linearGradient></defs><path d="M8.566 47.768H22.78a8.566 8.566 0 0 1 8.566 8.567V210H0V56.335a8.566 8.566 0 0 1 8.566-8.567zm43.885 35.348h14.213a8.566 8.566 0 0 1 8.567 8.566v118.515H43.885V91.682a8.566 8.566 0 0 1 8.566-8.566zm43.885-53.374h14.213a8.566 8.566 0 0 1 8.566 8.567V210H87.77V38.309a8.566 8.566 0 0 1 8.567-8.567zM140.22 3h14.214A8.566 8.566 0 0 1 163 11.566v198.73h-31.346V11.566A8.566 8.566 0 0 1 140.22 3z" fill="url(#a)" fill-rule="evenodd"/></svg>