<svg xmlns="http://www.w3.org/2000/svg" width="19" height="12"><g fill="#FFF" fill-rule="evenodd"><path d="M12.152.795h4.674v1.163h-4.674z"/><path fill-rule="nonzero" d="M18.687 7.33c0 .21-.009.411-.025.604H12.65c-.056 1.326.911 2.114 2.011 2.114.78 0 1.465-.413 1.86-1.114h1.968c-.54 1.97-2.127 2.79-4 2.79-2.453 0-4.197-1.967-4.197-4.394 0-2.428 1.879-4.396 4.197-4.396s4.198 1.968 4.198 4.395zm-6.037-.863h3.697c-.147-1.092-.918-1.789-1.849-1.789-.93 0-1.701.697-1.848 1.789zM9.57 7.516c.152 1.686-.15 2.732-1.871 3.58-.645.319-1.452.418-2.21.418H.036V.051h6c.744 0 3.043.441 3.056 2.65.008 1.528-.856 2.226-1.579 2.56 0 0 1.906.569 2.058 2.255zM7.115 8c0-1.61-1.816-1.567-1.816-1.567h-2.74v3.134h2.739S7.114 9.609 7.114 8zm-.45-4.66c0-1.349-1.523-1.314-1.523-1.314H2.559v2.628h2.582s1.523.035 1.523-1.314z"/></g></svg>