<svg xmlns="http://www.w3.org/2000/svg" width="21" height="16"><g fill="#FFF" fill-rule="evenodd"><path fill-rule="nonzero" d="M18.41.033H2.564A2.566 2.566 0 0 0 0 2.595v10.823a2.566 2.566 0 0 0 2.564 2.562h15.841a2.566 2.566 0 0 0 2.565-2.562V2.599A2.563 2.563 0 0 0 18.41.033zm1.392 13.385c0 .767-.624 1.392-1.392 1.392H2.564a1.394 1.394 0 0 1-1.393-1.392V2.599c0-.767.625-1.391 1.393-1.391h15.841c.768 0 1.393.624 1.393 1.391v10.819h.004z"/><path d="M13.225 7.872l5.128-4.596a.588.588 0 0 0 .044-.828.589.589 0 0 0-.829-.044l-7.072 6.344-1.38-1.231c-.004-.005-.009-.01-.009-.013a.867.867 0 0 0-.095-.083L3.397 2.4a.585.585 0 0 0-.828.048.584.584 0 0 0 .047.828l5.19 4.635-5.168 4.835a.587.587 0 0 0 .803.858L8.686 8.7l1.424 1.27a.586.586 0 0 0 .78-.004l1.463-1.31 5.215 4.953a.585.585 0 0 0 .807-.85l-5.15-4.887z"/></g></svg>