<svg height="512pt" viewBox="0 0 512 512.00218" width="512pt" xmlns="http://www.w3.org/2000/svg"><path d="m360.023438 97.917969c-38.75-31.503907-89.542969-43.613281-139.367188-33.230469-64.742188 13.496094-115.921875 66.914062-127.140625 132.117188-9.84375 57.1875 9.851563 111.496093 48.390625 148.394531 24.84375 23.785156 39.09375 56.882812 39.09375 90.804687v31c0 24.8125 20.1875 45 45 45h60c24.8125 0 45-20.1875 45-45 0-27.410156 0 25.652344 0-39.929687 0-29.058594 13.523438-57.796875 38.082031-80.917969 32.992188-31.0625 51.914063-74.855469 51.914063-120.152344.003906-49.894531-22.222656-96.578125-60.972656-128.085937zm-74.023438 384.082031h-60c-8.269531 0-15-6.730469-15-15v-16h90v16c0 8.269531-6.730469 15-15 15zm-30-163.039062-40.699219-61.046876 10.699219-10.699218 19.394531 19.394531c5.855469 5.855469 15.355469 5.855469 21.210938 0l19.394531-19.394531 10.699219 10.699218zm92.519531 5.351562c-28.984375 27.289062-45.648437 61.414062-47.371093 96.6875h-30.148438v-70.457031l56.65625-84.984375 28.949219-28.949219c5.859375-5.859375 5.859375-15.355469 0-21.214844-5.859375-5.855469-15.355469-5.855469-21.214844 0l-19.390625 19.394531-19.394531-19.394531c-5.859375-5.855469-15.355469-5.855469-21.214844 0l-19.394531 19.394531-19.390625-19.394531c-5.859375-5.855469-15.355469-5.855469-21.214844 0l-19.394531 19.394531-19.394532-19.394531c-5.855468-5.855469-15.351562-5.855469-21.210937 0-5.859375 5.859375-5.859375 15.355469 0 21.214844l28.949219 28.949219 56.65625 84.984375v70.457031h-30.746094c-3.648438-36.683594-20.542969-71.566406-47.597656-97.472656-33.015625-31.605469-47.4375-75.941406-39.574219-121.636719 9.203125-53.488281 50.875-96.824219 103.695313-107.835937 40.941406-8.535157 82.609374 1.359374 114.320312 27.140624 31.714844 25.785157 49.902344 63.984376 49.902344 104.804688.003906 37.609375-15.082032 72.523438-42.476563 98.3125zm0 0"/><path d="m60 226c0-8.28125-6.714844-15-15-15h-30c-8.28125 0-15 6.71875-15 15 0 8.285156 6.71875 15 15 15h30c8.285156 0 15-6.714844 15-15zm0 0"/><path d="m497 211h-30c-8.285156 0-15 6.71875-15 15 0 8.285156 6.714844 15 15 15h30c8.28125 0 15-6.714844 15-15 0-8.28125-6.71875-15-15-15zm0 0"/><path d="m81.632812 108.011719-25.980468-15c-7.171875-4.144531-16.347656-1.683594-20.488282 5.492187-4.140624 7.171875-1.683593 16.347656 5.488282 20.488282l25.980468 15c7.171876 4.140624 16.351563 1.6875 20.492188-5.488282 4.140625-7.175781 1.683594-16.347656-5.492188-20.492187zm0 0"/><path d="m471.34375 333.011719-25.980469-15c-7.175781-4.144531-16.347656-1.683594-20.488281 5.488281-4.144531 7.175781-1.6875 16.347656 5.488281 20.492188l25.980469 15c7.167969 4.140624 16.34375 1.6875 20.488281-5.492188 4.144531-7.171875 1.6875-16.347656-5.488281-20.488281zm0 0"/><path d="m138.007812 48.484375c4.144532 7.175781 13.320313 9.628906 20.492188 5.488281s9.632812-13.316406 5.488281-20.488281l-15-25.980469c-4.140625-7.175781-13.316406-9.632812-20.488281-5.492187-7.175781 4.144531-9.632812 13.316406-5.492188 20.492187zm0 0"/><path d="m66.632812 318.011719-25.980468 15c-7.171875 4.140625-9.628906 13.316406-5.488282 20.488281 4.144532 7.179688 13.320313 9.632812 20.488282 5.492188l25.980468-15c7.175782-4.144532 9.632813-13.316407 5.492188-20.492188-4.140625-7.171875-13.316406-9.632812-20.492188-5.488281zm0 0"/><path d="m445.363281 133.992188 25.980469-15c7.175781-4.140626 9.632812-13.316407 5.488281-20.488282-4.140625-7.175781-13.3125-9.632812-20.488281-5.492187l-25.980469 15c-7.175781 4.144531-9.632812 13.316406-5.488281 20.492187 4.140625 7.171875 13.3125 9.632813 20.488281 5.488282zm0 0"/><path d="m353.5 53.972656c7.167969 4.140625 16.34375 1.691406 20.488281-5.488281l15-25.980469c4.144531-7.175781 1.683594-16.347656-5.488281-20.492187-7.175781-4.140625-16.351562-1.683594-20.492188 5.492187l-15 25.980469c-4.140624 7.171875-1.683593 16.347656 5.492188 20.488281zm0 0"/></svg>