<svg height="512pt" viewBox="0 0 512 512.002" width="512pt" xmlns="http://www.w3.org/2000/svg"><path d="M360.023 97.918c-38.75-31.504-89.543-43.613-139.367-33.23-64.742 13.496-115.922 66.914-127.14 132.117-9.844 57.187 9.851 111.496 48.39 148.394C166.75 368.984 181 402.082 181 436.004v31c0 24.812 20.188 45 45 45h60c24.813 0 45-20.188 45-45v-39.93c0-29.058 13.523-57.797 38.082-80.918 32.992-31.062 51.914-74.855 51.914-120.152.004-49.895-22.223-96.578-60.973-128.086zM286 482h-60c-8.27 0-15-6.73-15-15v-16h90v16c0 8.27-6.73 15-15 15zm-30-163.04l-40.7-61.046 10.7-10.7 19.395 19.395c5.855 5.856 15.355 5.856 21.21 0L286 247.215l10.7 10.7zm92.52 5.353c-28.985 27.289-45.649 61.414-47.372 96.687H271v-70.457l56.656-84.984 28.95-28.95c5.859-5.859 5.859-15.355 0-21.214-5.86-5.856-15.356-5.856-21.215 0L316 234.789l-19.395-19.394c-5.859-5.856-15.355-5.856-21.214 0l-19.395 19.394-19.39-19.394c-5.86-5.856-15.356-5.856-21.215 0l-19.395 19.394-19.394-19.394c-5.856-5.856-15.352-5.856-21.211 0-5.86 5.859-5.86 15.355 0 21.214l28.949 28.95 56.656 84.984V421H210.25c-3.648-36.684-20.543-71.566-47.598-97.473-33.015-31.605-47.437-75.941-39.574-121.636 9.203-53.489 50.875-96.825 103.695-107.836 40.942-8.535 82.61 1.36 114.32 27.14C372.81 146.98 390.997 185.18 390.997 226c.004 37.61-15.082 72.523-42.476 98.312zM60 226c0-8.281-6.715-15-15-15H15c-8.281 0-15 6.719-15 15 0 8.285 6.719 15 15 15h30c8.285 0 15-6.715 15-15zm437-15h-30c-8.285 0-15 6.719-15 15 0 8.285 6.715 15 15 15h30c8.281 0 15-6.715 15-15 0-8.281-6.719-15-15-15zM81.633 108.012l-25.98-15c-7.173-4.145-16.348-1.684-20.489 5.492-4.14 7.172-1.684 16.348 5.488 20.488l25.98 15c7.173 4.14 16.352 1.688 20.493-5.488 4.14-7.176 1.684-16.348-5.492-20.492zm389.711 225l-25.98-15c-7.176-4.145-16.348-1.684-20.489 5.488-4.145 7.176-1.688 16.348 5.488 20.492l25.98 15c7.169 4.14 16.344 1.688 20.489-5.492 4.145-7.172 1.688-16.348-5.488-20.488zM138.008 48.484c4.144 7.176 13.32 9.63 20.492 5.489s9.633-13.317 5.488-20.489l-15-25.98C144.848.328 135.672-2.13 128.5 2.012c-7.176 4.144-9.633 13.316-5.492 20.492zM66.633 318.012l-25.98 15c-7.173 4.14-9.63 13.316-5.489 20.488 4.145 7.18 13.32 9.633 20.488 5.492l25.98-15c7.177-4.144 9.634-13.316 5.493-20.492-4.14-7.172-13.316-9.633-20.492-5.488zm378.73-184.02l25.98-15c7.177-4.14 9.634-13.316 5.489-20.488-4.14-7.176-13.312-9.633-20.488-5.492l-25.98 15c-7.176 4.144-9.634 13.316-5.489 20.492 4.14 7.172 13.313 9.633 20.488 5.488zM353.5 53.973c7.168 4.14 16.344 1.691 20.488-5.489l15-25.98c4.145-7.176 1.684-16.348-5.488-20.492-7.176-4.14-16.352-1.684-20.492 5.492l-15 25.98c-4.14 7.172-1.684 16.348 5.492 20.489zm0 0"/></svg>