<svg xmlns="http://www.w3.org/2000/svg" width="18" height="18"><g fill="none" fill-rule="evenodd"><path stroke="#81B7FF" stroke-linecap="round" stroke-linejoin="round" stroke-width="1.467" d="M7.675 2.907H.34v14.61h14.67v-7.304"/><path fill="#81B7FF" fill-rule="nonzero" d="M11.515 7.239L5.68 12.297a.367.367 0 1 1-.48-.554l5.835-5.059L9.063 4.41a.468.468 0 0 1 .061-.658.494.494 0 0 1 .193-.103l7.535-2.064a.449.449 0 0 1 .536.618L14.276 9.37a.487.487 0 0 1-.617.265.442.442 0 0 1-.172-.121L11.515 7.24z"/><path stroke="#81B7FF" stroke-linecap="round" stroke-width="1.5" d="M16.296 2.724L5.41 11.501"/></g></svg>