<?xml version="1.0" encoding="UTF-8"?>
<svg xmlns="http://www.w3.org/2000/svg" xmlns:xlink="http://www.w3.org/1999/xlink" width="13px" height="21px" version="1.1" viewBox="0 0 13 21">
<!--Generator: Sketch 52.6 (67491) - http://www.bohemiancoding.com/sketch-->
    <title>
        smartphone-call
    </title>
    <desc>
        Created with Sketch.
    </desc>
    <g id="履歷" fill="none" fill-rule="evenodd" stroke="none" stroke-width="1">
        <g id="fsafes01" fill="#FFFFFF" fill-rule="nonzero" transform="translate(-665.000000, -510.000000)">
            <g id="中" transform="translate(564.000000, 169.000000)">
                <g id="Group-5" transform="translate(46.000000, 271.000000)">
                    <g id="Group-6" transform="translate(55.000000, 64.000000)">
                        <g id="smartphone-call" transform="translate(0.000000, 6.000000)">
                            <path id="Shape" d="M11.488491,0 L1.51150895,0 C0.680306905,0 0,0.6378 0,1.4184 L0,19.581 C-5.67889015e-16,20.3616 0.680306905,21 1.51150895,21 L11.488491,21 C12.3196931,21 13,20.3628 13,19.5816 L13,1.4184 C13,0.6378 12.3196931,0 11.488491,0 Z M4.90409207,1.0224 L8.09590793,1.0224 C8.19693095,1.0224 8.27877238,1.0992 8.27877238,1.1946 C8.27877238,1.2894 8.19693095,1.3662 8.09590793,1.3662 L4.90409207,1.3662 C4.80306905,1.3662 4.72122762,1.2894 4.72122762,1.1946 C4.72122762,1.0992 4.80306905,1.0224 4.90409207,1.0224 Z M6.5,20.2908 C6.08248082,20.2908 5.74424552,19.9734 5.74424552,19.581 C5.74424552,19.1886 6.08248082,18.8718 6.5,18.8718 C6.91751918,18.8718 7.25575448,19.1886 7.25575448,19.581 C7.25575448,19.9734 6.91751918,20.2908 6.5,20.2908 Z M11.9482097,18.375 L1.05179028,18.375 L1.05179028,2.2494 L11.9482097,2.2494 L11.9482097,18.375 Z"/>
                        </g>
                    </g>
                </g>
            </g>
        </g>
    </g>
</svg>
