<svg width="28" height="28" xmlns="http://www.w3.org/2000/svg"><path d="M26.44 19.917l-3.924-2.248a9.226 9.226 0 0 0 0-7.338l3.685-2.112a1.09 1.09 0 0 0 .404-1.494 1.106 1.106 0 0 0-1.505-.4l-3.688 2.114a9.382 9.382 0 0 0-6.398-3.671V1.094C15.014.49 14.52 0 13.912 0c-.608 0-1.101.49-1.101 1.094v3.674a9.381 9.381 0 0 0-6.398 3.67l-3.76-2.155a1.106 1.106 0 0 0-1.505.4 1.09 1.09 0 0 0 .403 1.495l3.757 2.153a9.226 9.226 0 0 0 0 7.338l-3.603 2.065a1.09 1.09 0 0 0-.403 1.494c.306.525.98.7 1.505.4l3.606-2.067a9.384 9.384 0 0 0 6.397 3.671v3.674c0 .604.494 1.094 1.102 1.094.609 0 1.102-.49 1.102-1.094v-3.674a9.384 9.384 0 0 0 6.398-3.67l3.926 2.25c.525.3 1.2.124 1.504-.4a1.09 1.09 0 0 0-.403-1.495zM13.911 6.891c3.949 0 7.161 3.189 7.161 7.109a7.05 7.05 0 0 1-1.795 4.702 5.9 5.9 0 0 0-2.24-2.508 4.29 4.29 0 0 0 1.242-3.018c0-2.382-1.952-4.32-4.351-4.32-2.4 0-4.352 1.938-4.352 4.32a4.29 4.29 0 0 0 1.23 3.006 5.9 5.9 0 0 0-2.261 2.52A7.05 7.05 0 0 1 6.751 14c0-3.92 3.213-7.11 7.161-7.11z" fill="#626774"/></svg>