<?xml version="1.0" encoding="UTF-8"?>
<svg width="35px" height="69px" viewBox="0 0 35 69" version="1.1" xmlns="http://www.w3.org/2000/svg" xmlns:xlink="http://www.w3.org/1999/xlink">
    <!-- Generator: Sketch 52.6 (67491) - http://www.bohemiancoding.com/sketch -->
    <title>Artboard</title>
    <desc>Created with Sketch.</desc>
    <g id="Artboard" stroke="none" stroke-width="1" fill="none" fill-rule="evenodd">
        <g id="Group" transform="translate(1.000000, 2.000000)" fill="#929AAB">
            <path d="M24.0972597,20.1891778 L24.0972597,37 C24.0972597,38.1045695 23.2018292,39 22.0972597,39 L10.9026744,39 C9.79810493,39 8.90267443,38.1045695 8.90267443,37 L8.90267443,20.1891778 L3.03291282,20.1891778 C1.92834332,20.1891778 1.03291282,19.2937473 1.03291282,18.1891778 C1.03291282,17.7225585 1.19606891,17.2706257 1.49413684,16.9116143 L14.9611911,0.6910668 C15.6667699,-0.158775704 16.9276881,-0.275724512 17.7775306,0.429854327 C17.8724734,0.508680266 17.9599171,0.596123996 18.038743,0.6910668 L31.5057973,16.9116143 C32.2113761,17.7614568 32.0944273,19.022375 31.2445848,19.7279538 C30.8855735,20.0260217 30.4336407,20.1891778 29.9670213,20.1891778 L24.0972597,20.1891778 Z" id="Combined-Shape"></path>
            <text id="TOP" font-family="PingFangTC-Regular, PingFang TC" font-size="16" font-weight="normal">
                <tspan x="0" y="64">TOP</tspan>
            </text>
        </g>
    </g>
</svg>